<svg id="svgQrWrapper" viewBox="0 0 300 300" xmlns="http://www.w3.org/2000/svg" xmlns:xlink="http://www.w3.org/1999/xlink" width="300" height="300" style="width: 100%; height: 100%; background-color: rgb(255, 255, 255);"><svg xmlns="http://www.w3.org/2000/svg" viewBox="0 0 2000 2000" width="300" height="300" fill="none"><g><defs><style>.cls-har22{fill:#e84d23}.cls-har23{fill:#eaa221}</style></defs><path d="M1750.81 1730.13H249.19V269.87H1750.8v1460.26Zm-1412.43-89.18h1323.24V359.05H338.38v1281.89Z" style="fill: rgb(255, 235, 187);"/><path d="m390.62 284.96-34.07 59.01h68.14l-34.07-59.01z" class="cls-har23"/><path d="m442.53 343.97-34.07-59.01h68.14l-34.07 59.01zM341.42 343.97l-34.07-59.01h68.14l-34.07 59.01z" class="cls-har22"/><path d="m492.24 284.96-34.07 59.01h68.14l-34.07-59.01z" class="cls-har23"/><path d="m544.14 343.97-34.06-59.01h68.13l-34.07 59.01z" class="cls-har22"/><path d="m593.85 284.96-34.06 59.01h68.13l-34.07-59.01z" class="cls-har23"/><path d="m645.76 343.97-34.07-59.01h68.14l-34.07 59.01z" class="cls-har22"/><path d="m695.47 284.96-34.07 59.01h68.14l-34.07-59.01z" class="cls-har23"/><path d="m747.38 343.97-34.07-59.01h68.14l-34.07 59.01z" class="cls-har22"/><path d="m797.09 284.96-34.07 59.01h68.14l-34.07-59.01z" class="cls-har23"/><path d="m849 343.97-34.07-59.01h68.13L849 343.97z" class="cls-har22"/><path d="m898.71 284.96-34.07 59.01h68.13l-34.06-59.01z" class="cls-har23"/><path d="m950.61 343.97-34.07-59.01h68.14l-34.07 59.01z" class="cls-har22"/><path d="m1000.32 284.96-34.07 59.01h68.14l-34.07-59.01z" class="cls-har23"/><path d="m1052.23 343.97-34.07-59.01h68.14l-34.07 59.01z" class="cls-har22"/><path d="m1101.94 284.96-34.07 59.01h68.14l-34.07-59.01z" class="cls-har23"/><path d="m1153.85 343.97-34.07-59.01h68.14l-34.07 59.01z" class="cls-har22"/><path d="m1203.56 284.96-34.07 59.01h68.14l-34.07-59.01z" class="cls-har23"/><path d="m1255.46 343.97-34.06-59.01h68.13l-34.07 59.01z" class="cls-har22"/><path d="m1305.17 284.96-34.07 59.01h68.14l-34.07-59.01z" class="cls-har23"/><path d="m1357.08 343.97-34.07-59.01h68.14l-34.07 59.01z" class="cls-har22"/><path d="m1406.79 284.96-34.07 59.01h68.14l-34.07-59.01z" class="cls-har23"/><path d="m1458.7 343.97-34.07-59.01h68.14l-34.07 59.01z" class="cls-har22"/><path d="m1508.41 284.96-34.07 59.01h68.14l-34.07-59.01zM1612.58 284.96l-34.07 59.01h68.14l-34.07-59.01z" class="cls-har23"/><path d="m1560.32 343.97-34.07-59.01h68.13l-34.06 59.01zM1661.76 343.97l-34.07-59.01h68.14l-34.07 59.01z" class="cls-har22"/><path d="m390.62 1715.04-34.07-59.01h68.14l-34.07 59.01z" class="cls-har23"/><path d="m442.53 1656.03-34.07 59.01h68.14l-34.07-59.01zM341.42 1656.03l-34.07 59.01h68.14l-34.07-59.01z" class="cls-har22"/><path d="m492.24 1715.04-34.07-59.01h68.14l-34.07 59.01z" class="cls-har23"/><path d="m544.14 1656.03-34.06 59.01h68.13l-34.07-59.01z" class="cls-har22"/><path d="m593.85 1715.04-34.06-59.01h68.13l-34.07 59.01z" class="cls-har23"/><path d="m645.76 1656.03-34.07 59.01h68.14l-34.07-59.01z" class="cls-har22"/><path d="m695.47 1715.04-34.07-59.01h68.14l-34.07 59.01z" class="cls-har23"/><path d="m747.38 1656.03-34.07 59.01h68.14l-34.07-59.01z" class="cls-har22"/><path d="m797.09 1715.04-34.07-59.01h68.14l-34.07 59.01z" class="cls-har23"/><path d="m849 1656.03-34.07 59.01h68.13L849 1656.03z" class="cls-har22"/><path d="m898.71 1715.04-34.07-59.01h68.13l-34.06 59.01z" class="cls-har23"/><path d="m950.61 1656.03-34.07 59.01h68.14l-34.07-59.01z" class="cls-har22"/><path d="m1000.32 1715.04-34.07-59.01h68.14l-34.07 59.01z" class="cls-har23"/><path d="m1052.23 1656.03-34.07 59.01h68.14l-34.07-59.01z" class="cls-har22"/><path d="m1101.94 1715.04-34.07-59.01h68.14l-34.07 59.01z" class="cls-har23"/><path d="m1153.85 1656.03-34.07 59.01h68.14l-34.07-59.01z" class="cls-har22"/><path d="m1203.56 1715.04-34.07-59.01h68.14l-34.07 59.01z" class="cls-har23"/><path d="m1255.46 1656.03-34.06 59.01h68.13l-34.07-59.01z" class="cls-har22"/><path d="m1305.17 1715.04-34.07-59.01h68.14l-34.07 59.01z" class="cls-har23"/><path d="m1357.08 1656.03-34.07 59.01h68.14l-34.07-59.01z" class="cls-har22"/><path d="m1406.79 1715.04-34.07-59.01h68.14l-34.07 59.01z" class="cls-har23"/><path d="m1458.7 1656.03-34.07 59.01h68.14l-34.07-59.01z" class="cls-har22"/><path d="m1508.41 1715.04-34.07-59.01h68.14l-34.07 59.01zM1612.58 1715.04l-34.07-59.01h68.14l-34.07 59.01z" class="cls-har23"/><path d="m1560.32 1656.03-34.07 59.01h68.13l-34.06-59.01zM1661.76 1656.03l-34.07 59.01h68.14l-34.07-59.01z" class="cls-har22"/><path d="m265.97 1609.33 59.01 34.07v-68.14l-59.01 34.07z" class="cls-har23"/><path d="m324.98 1557.42-59.01 34.07v-68.14l59.01 34.07z" class="cls-har22"/><path d="m265.97 1507.71 59.01 34.07v-68.14l-59.01 34.07z" class="cls-har23"/><path d="m324.98 1455.8-59.01 34.07v-68.14l59.01 34.07z" class="cls-har22"/><path d="m265.97 1406.09 59.01 34.07v-68.14l-59.01 34.07z" class="cls-har23"/><path d="m324.98 1354.19-59.01 34.06v-68.13l59.01 34.07z" class="cls-har22"/><path d="m265.97 1304.48 59.01 34.06v-68.13l-59.01 34.07z" class="cls-har23"/><path d="m324.98 1252.57-59.01 34.07v-68.14l59.01 34.07z" class="cls-har22"/><path d="m265.97 1202.86 59.01 34.07v-68.14l-59.01 34.07z" class="cls-har23"/><path d="m324.98 1150.95-59.01 34.07v-68.14l59.01 34.07z" class="cls-har22"/><path d="m265.97 1101.24 59.01 34.07v-68.14l-59.01 34.07z" class="cls-har23"/><path d="m324.98 1049.33-59.01 34.07v-68.13l59.01 34.06z" class="cls-har22"/><path d="m265.97 999.63 59.01 34.06v-68.13l-59.01 34.07z" class="cls-har23"/><path d="m324.98 947.72-59.01 34.07v-68.14l59.01 34.07z" class="cls-har22"/><path d="m265.97 898.01 59.01 34.07v-68.14l-59.01 34.07z" class="cls-har23"/><path d="m324.98 846.1-59.01 34.07v-68.14l59.01 34.07z" class="cls-har22"/><path d="m265.97 796.39 59.01 34.07v-68.14l-59.01 34.07z" class="cls-har23"/><path d="m324.98 744.48-59.01 34.07v-68.14l59.01 34.07z" class="cls-har22"/><path d="m265.97 694.77 59.01 34.07v-68.13l-59.01 34.06z" class="cls-har23"/><path d="m324.98 642.87-59.01 34.07V608.8l59.01 34.07z" class="cls-har22"/><path d="m265.97 593.16 59.01 34.07v-68.14l-59.01 34.07z" class="cls-har23"/><path d="m324.98 541.25-59.01 34.07v-68.14l59.01 34.07z" class="cls-har22"/><path d="m265.97 491.54 59.01 34.07v-68.14l-59.01 34.07zM265.97 387.37l59.01 34.07V353.3l-59.01 34.07z" class="cls-har23"/><path d="m324.98 439.63-59.01 34.07v-68.14l59.01 34.07z" class="cls-har22"/><path d="m1675.67 1559.76 59.01 34.07v-68.14l-59.01 34.07z" class="cls-har23"/><path d="m1734.68 1507.85-59.01 34.07v-68.14l59.01 34.07zM1734.68 1608.52l-59.01 34.07v-68.14l59.01 34.07z" class="cls-har22"/><path d="m1675.67 1458.14 59.01 34.07v-68.14l-59.01 34.07z" class="cls-har23"/><path d="m1734.68 1406.23-59.01 34.07v-68.13l59.01 34.06z" class="cls-har22"/><path d="m1675.67 1356.52 59.01 34.07v-68.13l-59.01 34.06z" class="cls-har23"/><path d="m1734.68 1304.62-59.01 34.07v-68.14l59.01 34.07z" class="cls-har22"/><path d="m1675.67 1254.91 59.01 34.07v-68.14l-59.01 34.07z" class="cls-har23"/><path d="m1734.68 1203-59.01 34.07v-68.14l59.01 34.07z" class="cls-har22"/><path d="m1675.67 1153.29 59.01 34.07v-68.14l-59.01 34.07z" class="cls-har23"/><path d="m1734.68 1101.38-59.01 34.07v-68.14l59.01 34.07z" class="cls-har22"/><path d="m1675.67 1051.67 59.01 34.07v-68.13l-59.01 34.06z" class="cls-har23"/><path d="m1734.68 999.77-59.01 34.06V965.7l59.01 34.07z" class="cls-har22"/><path d="m1675.67 950.06 59.01 34.07v-68.14l-59.01 34.07z" class="cls-har23"/><path d="m1734.68 898.15-59.01 34.07v-68.14l59.01 34.07z" class="cls-har22"/><path d="m1675.67 848.44 59.01 34.07v-68.14l-59.01 34.07z" class="cls-har23"/><path d="m1734.68 796.53-59.01 34.07v-68.14l59.01 34.07z" class="cls-har22"/><path d="m1675.67 746.82 59.01 34.07v-68.14l-59.01 34.07z" class="cls-har23"/><path d="m1734.68 694.92-59.01 34.06v-68.13l59.01 34.07z" class="cls-har22"/><path d="m1675.67 645.21 59.01 34.06v-68.13l-59.01 34.07z" class="cls-har23"/><path d="m1734.68 593.3-59.01 34.07v-68.14l59.01 34.07z" class="cls-har22"/><path d="m1675.67 543.59 59.01 34.07v-68.14l-59.01 34.07z" class="cls-har23"/><path d="m1734.68 491.68-59.01 34.07v-68.14l59.01 34.07z" class="cls-har22"/><path d="m1675.67 441.97 59.01 34.07V407.9l-59.01 34.07z" class="cls-har23"/><path d="m1734.68 390.06-59.01 34.07V356l59.01 34.06z" class="cls-har22"/><g transform="translate(400, 400)scale(4)" fill="none"><svg width="300" height="300"><style>.background-color{ fill: #fff; }.dot-color{ fill: #eaa222; }.corners-square-color-0-0{ fill: #e84c23; }.corners-dot-color-0-0{ fill: #e84c23; }.corners-square-color-1-0{ fill: #e84c23; }.corners-dot-color-1-0{ fill: #e84c23; }.corners-square-color-0-1{ fill: #e84c23; }.corners-dot-color-0-1{ fill: #e84c23; }</style><defs/><g class="dot-color"><circle cx="10" cy="120" r="5" transform="rotate(0,10,120)"/><circle cx="10" cy="140" r="5" transform="rotate(0,10,140)"/><path d="M 5 155v 10h 5a 5 5, 0, 0, 0, 0 -10" transform="rotate(180,10,160)"/><path d="M 5 185v 10h 5a 5 5, 0, 0, 0, 0 -10" transform="rotate(180,10,190)"/><path d="M 15 95v 10h 5a 5 5, 0, 0, 0, 0 -10" transform="rotate(180,20,100)"/><path d="M 15 145v 10h 10v -5a 5 5, 0, 0, 0, -5 -5" transform="rotate(-90,20,150)"/><path d="M 15 155v 10h 10v -5a 5 5, 0, 0, 0, -5 -5" transform="rotate(90,20,160)"/><path d="M 15 175v 10h 10v -5a 5 5, 0, 0, 0, -5 -5" transform="rotate(-90,20,180)"/><rect x="15" y="185" width="10" height="10" transform="rotate(0,20,190)"/><rect x="25" y="95" width="10" height="10" transform="rotate(0,30,100)"/><rect x="25" y="105" width="10" height="10" transform="rotate(0,30,110)"/><rect x="25" y="115" width="10" height="10" transform="rotate(0,30,120)"/><path d="M 25 125v 10h 5a 5 5, 0, 0, 0, 0 -10" transform="rotate(90,30,130)"/><rect x="25" y="145" width="10" height="10" transform="rotate(0,30,150)"/><path d="M 25 165v 10h 5a 5 5, 0, 0, 0, 0 -10" transform="rotate(-90,30,170)"/><rect x="25" y="175" width="10" height="10" transform="rotate(0,30,180)"/><rect x="25" y="185" width="10" height="10" transform="rotate(0,30,190)"/><path d="M 35 85v 10h 5a 5 5, 0, 0, 0, 0 -10" transform="rotate(-90,40,90)"/><rect x="35" y="95" width="10" height="10" transform="rotate(0,40,100)"/><path d="M 35 105v 10h 10v -5a 5 5, 0, 0, 0, -5 -5" transform="rotate(90,40,110)"/><rect x="35" y="145" width="10" height="10" transform="rotate(0,40,150)"/><path d="M 35 155v 10h 5a 5 5, 0, 0, 0, 0 -10" transform="rotate(90,40,160)"/><rect x="35" y="175" width="10" height="10" transform="rotate(0,40,180)"/><rect x="35" y="185" width="10" height="10" transform="rotate(0,40,190)"/><path d="M 35 195v 10h 5a 5 5, 0, 0, 0, 0 -10" transform="rotate(90,40,200)"/><rect x="45" y="95" width="10" height="10" transform="rotate(0,50,100)"/><path d="M 45 125v 10h 5a 5 5, 0, 0, 0, 0 -10" transform="rotate(180,50,130)"/><rect x="45" y="145" width="10" height="10" transform="rotate(0,50,150)"/><rect x="45" y="175" width="10" height="10" transform="rotate(0,50,180)"/><path d="M 45 185v 10h 10v -5a 5 5, 0, 0, 0, -5 -5" transform="rotate(90,50,190)"/><circle cx="50" cy="210" r="5" transform="rotate(0,50,210)"/><path d="M 55 85v 10h 10v -5a 5 5, 0, 0, 0, -5 -5" transform="rotate(-90,60,90)"/><path d="M 55 95v 10h 10v -5a 5 5, 0, 0, 0, -5 -5" transform="rotate(90,60,100)"/><rect x="55" y="125" width="10" height="10" transform="rotate(0,60,130)"/><rect x="55" y="135" width="10" height="10" transform="rotate(0,60,140)"/><rect x="55" y="145" width="10" height="10" transform="rotate(0,60,150)"/><path d="M 55 175v 10h 5a 5 5, 0, 0, 0, 0 -10" transform="rotate(0,60,180)"/><rect x="65" y="85" width="10" height="10" transform="rotate(0,70,90)"/><circle cx="70" cy="110" r="5" transform="rotate(0,70,110)"/><path d="M 65 125v 10h 5a 5 5, 0, 0, 0, 0 -10" transform="rotate(0,70,130)"/><path d="M 65 145v 10h 5a 5 5, 0, 0, 0, 0 -10" transform="rotate(0,70,150)"/><path d="M 65 165v 10h 5a 5 5, 0, 0, 0, 0 -10" transform="rotate(180,70,170)"/><circle cx="70" cy="190" r="5" transform="rotate(0,70,190)"/><circle cx="70" cy="210" r="5" transform="rotate(0,70,210)"/><path d="M 75 85v 10h 5a 5 5, 0, 0, 0, 0 -10" transform="rotate(0,80,90)"/><circle cx="80" cy="120" r="5" transform="rotate(0,80,120)"/><path d="M 75 165v 10h 5a 5 5, 0, 0, 0, 0 -10" transform="rotate(0,80,170)"/><path d="M 75 195v 10h 5a 5 5, 0, 0, 0, 0 -10" transform="rotate(180,80,200)"/><path d="M 85 15v 10h 5a 5 5, 0, 0, 0, 0 -10" transform="rotate(-90,90,20)"/><path d="M 85 25v 10h 5a 5 5, 0, 0, 0, 0 -10" transform="rotate(90,90,30)"/><circle cx="90" cy="70" r="5" transform="rotate(0,90,70)"/><path d="M 85 105v 10h 5a 5 5, 0, 0, 0, 0 -10" transform="rotate(180,90,110)"/><path d="M 85 125v 10h 5a 5 5, 0, 0, 0, 0 -10" transform="rotate(180,90,130)"/><path d="M 85 175v 10h 5a 5 5, 0, 0, 0, 0 -10" transform="rotate(180,90,180)"/><path d="M 85 195v 10h 10v -5a 5 5, 0, 0, 0, -5 -5" transform="rotate(0,90,200)"/><path d="M 85 205v 10h 10v -5a 5 5, 0, 0, 0, -5 -5" transform="rotate(180,90,210)"/><path d="M 85 225v 10h 5a 5 5, 0, 0, 0, 0 -10" transform="rotate(-90,90,230)"/><path d="M 85 235v 10h 10v -5a 5 5, 0, 0, 0, -5 -5" transform="rotate(180,90,240)"/><circle cx="90" cy="260" r="5" transform="rotate(0,90,260)"/><circle cx="100" cy="10" r="5" transform="rotate(0,100,10)"/><path d="M 95 35v 10h 5a 5 5, 0, 0, 0, 0 -10" transform="rotate(-90,100,40)"/><path d="M 95 45v 10h 5a 5 5, 0, 0, 0, 0 -10" transform="rotate(90,100,50)"/><path d="M 95 85v 10h 5a 5 5, 0, 0, 0, 0 -10" transform="rotate(180,100,90)"/><rect x="95" y="105" width="10" height="10" transform="rotate(0,100,110)"/><rect x="95" y="115" width="10" height="10" transform="rotate(0,100,120)"/><path d="M 95 125v 10h 10v -5a 5 5, 0, 0, 0, -5 -5" transform="rotate(90,100,130)"/><path d="M 95 165v 10h 5a 5 5, 0, 0, 0, 0 -10" transform="rotate(-90,100,170)"/><rect x="95" y="175" width="10" height="10" transform="rotate(0,100,180)"/><path d="M 95 185v 10h 5a 5 5, 0, 0, 0, 0 -10" transform="rotate(90,100,190)"/><path d="M 95 205v 10h 10v -5a 5 5, 0, 0, 0, -5 -5" transform="rotate(0,100,210)"/><path d="M 95 215v 10h 10v -5a 5 5, 0, 0, 0, -5 -5" transform="rotate(180,100,220)"/><path d="M 95 235v 10h 5a 5 5, 0, 0, 0, 0 -10" transform="rotate(0,100,240)"/><path d="M 95 275v 10h 5a 5 5, 0, 0, 0, 0 -10" transform="rotate(-90,100,280)"/><path d="M 95 285v 10h 10v -5a 5 5, 0, 0, 0, -5 -5" transform="rotate(180,100,290)"/><path d="M 105 15v 10h 5a 5 5, 0, 0, 0, 0 -10" transform="rotate(-90,110,20)"/><path d="M 105 25v 10h 10v -5a 5 5, 0, 0, 0, -5 -5" transform="rotate(180,110,30)"/><circle cx="110" cy="70" r="5" transform="rotate(0,110,70)"/><rect x="105" y="85" width="10" height="10" transform="rotate(0,110,90)"/><rect x="105" y="105" width="10" height="10" transform="rotate(0,110,110)"/><rect x="105" y="115" width="10" height="10" transform="rotate(0,110,120)"/><path d="M 105 145v 10h 5a 5 5, 0, 0, 0, 0 -10" transform="rotate(180,110,150)"/><path d="M 105 175v 10h 5a 5 5, 0, 0, 0, 0 -10" transform="rotate(0,110,180)"/><path d="M 105 195v 10h 5a 5 5, 0, 0, 0, 0 -10" transform="rotate(180,110,200)"/><path d="M 105 215v 10h 5a 5 5, 0, 0, 0, 0 -10" transform="rotate(0,110,220)"/><circle cx="110" cy="250" r="5" transform="rotate(0,110,250)"/><path d="M 105 285v 10h 5a 5 5, 0, 0, 0, 0 -10" transform="rotate(0,110,290)"/><path d="M 115 5v 10h 5a 5 5, 0, 0, 0, 0 -10" transform="rotate(180,120,10)"/><path d="M 115 25v 10h 5a 5 5, 0, 0, 0, 0 -10" transform="rotate(0,120,30)"/><circle cx="120" cy="60" r="5" transform="rotate(0,120,60)"/><path d="M 115 85v 10h 5a 5 5, 0, 0, 0, 0 -10" transform="rotate(0,120,90)"/><path d="M 115 105v 10h 10v -5a 5 5, 0, 0, 0, -5 -5" transform="rotate(0,120,110)"/><path d="M 115 115v 10h 10v -5a 5 5, 0, 0, 0, -5 -5" transform="rotate(90,120,120)"/><rect x="115" y="145" width="10" height="10" transform="rotate(0,120,150)"/><rect x="115" y="155" width="10" height="10" transform="rotate(0,120,160)"/><path d="M 115 165v 10h 10v -5a 5 5, 0, 0, 0, -5 -5" transform="rotate(180,120,170)"/><path d="M 115 185v 10h 5a 5 5, 0, 0, 0, 0 -10" transform="rotate(-90,120,190)"/><path d="M 115 195v 10h 10v -5a 5 5, 0, 0, 0, -5 -5" transform="rotate(90,120,200)"/><path d="M 115 225v 10h 5a 5 5, 0, 0, 0, 0 -10" transform="rotate(180,120,230)"/><path d="M 115 255v 10h 5a 5 5, 0, 0, 0, 0 -10" transform="rotate(180,120,260)"/><rect x="125" y="5" width="10" height="10" transform="rotate(0,130,10)"/><path d="M 125 35v 10h 5a 5 5, 0, 0, 0, 0 -10" transform="rotate(-90,130,40)"/><path d="M 125 45v 10h 5a 5 5, 0, 0, 0, 0 -10" transform="rotate(90,130,50)"/><path d="M 125 65v 10h 5a 5 5, 0, 0, 0, 0 -10" transform="rotate(-90,130,70)"/><path d="M 125 75v 10h 10v -5a 5 5, 0, 0, 0, -5 -5" transform="rotate(180,130,80)"/><circle cx="130" cy="100" r="5" transform="rotate(0,130,100)"/><rect x="125" y="145" width="10" height="10" transform="rotate(0,130,150)"/><rect x="125" y="155" width="10" height="10" transform="rotate(0,130,160)"/><rect x="125" y="165" width="10" height="10" transform="rotate(0,130,170)"/><path d="M 125 215v 10h 5a 5 5, 0, 0, 0, 0 -10" transform="rotate(-90,130,220)"/><rect x="125" y="225" width="10" height="10" transform="rotate(0,130,230)"/><rect x="125" y="255" width="10" height="10" transform="rotate(0,130,260)"/><circle cx="130" cy="280" r="5" transform="rotate(0,130,280)"/><path d="M 135 5v 10h 5a 5 5, 0, 0, 0, 0 -10" transform="rotate(0,140,10)"/><circle cx="140" cy="30" r="5" transform="rotate(0,140,30)"/><path d="M 135 75v 10h 5a 5 5, 0, 0, 0, 0 -10" transform="rotate(0,140,80)"/><path d="M 135 115v 10h 5a 5 5, 0, 0, 0, 0 -10" transform="rotate(180,140,120)"/><path d="M 135 145v 10h 5a 5 5, 0, 0, 0, 0 -10" transform="rotate(0,140,150)"/><rect x="135" y="165" width="10" height="10" transform="rotate(0,140,170)"/><path d="M 135 195v 10h 10v -5a 5 5, 0, 0, 0, -5 -5" transform="rotate(-90,140,200)"/><path d="M 135 205v 10h 5a 5 5, 0, 0, 0, 0 -10" transform="rotate(90,140,210)"/><path d="M 135 225v 10h 5a 5 5, 0, 0, 0, 0 -10" transform="rotate(0,140,230)"/><rect x="135" y="255" width="10" height="10" transform="rotate(0,140,260)"/><path d="M 135 285v 10h 5a 5 5, 0, 0, 0, 0 -10" transform="rotate(180,140,290)"/><circle cx="150" cy="70" r="5" transform="rotate(0,150,70)"/><path d="M 145 95v 10h 5a 5 5, 0, 0, 0, 0 -10" transform="rotate(-90,150,100)"/><rect x="145" y="105" width="10" height="10" transform="rotate(0,150,110)"/><rect x="145" y="115" width="10" height="10" transform="rotate(0,150,120)"/><path d="M 145 125v 10h 5a 5 5, 0, 0, 0, 0 -10" transform="rotate(90,150,130)"/><path d="M 145 155v 10h 10v -5a 5 5, 0, 0, 0, -5 -5" transform="rotate(-90,150,160)"/><rect x="145" y="165" width="10" height="10" transform="rotate(0,150,170)"/><rect x="145" y="175" width="10" height="10" transform="rotate(0,150,180)"/><rect x="145" y="185" width="10" height="10" transform="rotate(0,150,190)"/><path d="M 145 195v 10h 10v -5a 5 5, 0, 0, 0, -5 -5" transform="rotate(90,150,200)"/><circle cx="150" cy="220" r="5" transform="rotate(0,150,220)"/><rect x="145" y="255" width="10" height="10" transform="rotate(0,150,260)"/><path d="M 145 265v 10h 5a 5 5, 0, 0, 0, 0 -10" transform="rotate(90,150,270)"/><rect x="145" y="285" width="10" height="10" transform="rotate(0,150,290)"/><path d="M 155 5v 10h 5a 5 5, 0, 0, 0, 0 -10" transform="rotate(-90,160,10)"/><path d="M 155 15v 10h 5a 5 5, 0, 0, 0, 0 -10" transform="rotate(90,160,20)"/><path d="M 155 35v 10h 10v -5a 5 5, 0, 0, 0, -5 -5" transform="rotate(-90,160,40)"/><path d="M 155 45v 10h 10v -5a 5 5, 0, 0, 0, -5 -5" transform="rotate(180,160,50)"/><path d="M 155 75v 10h 5a 5 5, 0, 0, 0, 0 -10" transform="rotate(-90,160,80)"/><path d="M 155 85v 10h 5a 5 5, 0, 0, 0, 0 -10" transform="rotate(90,160,90)"/><path d="M 155 105v 10h 10v -5a 5 5, 0, 0, 0, -5 -5" transform="rotate(0,160,110)"/><rect x="155" y="115" width="10" height="10" transform="rotate(0,160,120)"/><path d="M 155 155v 10h 5a 5 5, 0, 0, 0, 0 -10" transform="rotate(0,160,160)"/><rect x="155" y="185" width="10" height="10" transform="rotate(0,160,190)"/><path d="M 155 255v 10h 5a 5 5, 0, 0, 0, 0 -10" transform="rotate(0,160,260)"/><path d="M 155 285v 10h 5a 5 5, 0, 0, 0, 0 -10" transform="rotate(0,160,290)"/><rect x="165" y="35" width="10" height="10" transform="rotate(0,170,40)"/><rect x="165" y="45" width="10" height="10" transform="rotate(0,170,50)"/><rect x="165" y="55" width="10" height="10" transform="rotate(0,170,60)"/><path d="M 165 65v 10h 5a 5 5, 0, 0, 0, 0 -10" transform="rotate(90,170,70)"/><path d="M 165 95v 10h 5a 5 5, 0, 0, 0, 0 -10" transform="rotate(180,170,100)"/><path d="M 165 115v 10h 5a 5 5, 0, 0, 0, 0 -10" transform="rotate(0,170,120)"/><path d="M 165 145v 10h 5a 5 5, 0, 0, 0, 0 -10" transform="rotate(180,170,150)"/><path d="M 165 165v 10h 10v -5a 5 5, 0, 0, 0, -5 -5" transform="rotate(-90,170,170)"/><rect x="165" y="175" width="10" height="10" transform="rotate(0,170,180)"/><rect x="165" y="185" width="10" height="10" transform="rotate(0,170,190)"/><rect x="165" y="195" width="10" height="10" transform="rotate(0,170,200)"/><path d="M 165 205v 10h 10v -5a 5 5, 0, 0, 0, -5 -5" transform="rotate(180,170,210)"/><path d="M 165 225v 10h 5a 5 5, 0, 0, 0, 0 -10" transform="rotate(-90,170,230)"/><path d="M 165 235v 10h 10v -5a 5 5, 0, 0, 0, -5 -5" transform="rotate(180,170,240)"/><path d="M 175 15v 10h 5a 5 5, 0, 0, 0, 0 -10" transform="rotate(180,180,20)"/><path d="M 175 35v 10h 5a 5 5, 0, 0, 0, 0 -10" transform="rotate(0,180,40)"/><rect x="175" y="55" width="10" height="10" transform="rotate(0,180,60)"/><path d="M 175 95v 10h 10v -5a 5 5, 0, 0, 0, -5 -5" transform="rotate(0,180,100)"/><path d="M 175 105v 10h 5a 5 5, 0, 0, 0, 0 -10" transform="rotate(90,180,110)"/><circle cx="180" cy="130" r="5" transform="rotate(0,180,130)"/><rect x="175" y="145" width="10" height="10" transform="rotate(0,180,150)"/><rect x="175" y="165" width="10" height="10" transform="rotate(0,180,170)"/><path d="M 175 205v 10h 5a 5 5, 0, 0, 0, 0 -10" transform="rotate(0,180,210)"/><path d="M 175 235v 10h 5a 5 5, 0, 0, 0, 0 -10" transform="rotate(0,180,240)"/><path d="M 175 255v 10h 5a 5 5, 0, 0, 0, 0 -10" transform="rotate(-90,180,260)"/><path d="M 175 265v 10h 5a 5 5, 0, 0, 0, 0 -10" transform="rotate(90,180,270)"/><path d="M 175 285v 10h 5a 5 5, 0, 0, 0, 0 -10" transform="rotate(180,180,290)"/><path d="M 185 5v 10h 5a 5 5, 0, 0, 0, 0 -10" transform="rotate(-90,190,10)"/><path d="M 185 15v 10h 10v -5a 5 5, 0, 0, 0, -5 -5" transform="rotate(90,190,20)"/><rect x="185" y="55" width="10" height="10" transform="rotate(0,190,60)"/><path d="M 185 65v 10h 5a 5 5, 0, 0, 0, 0 -10" transform="rotate(90,190,70)"/><rect x="185" y="145" width="10" height="10" transform="rotate(0,190,150)"/><rect x="185" y="165" width="10" height="10" transform="rotate(0,190,170)"/><path d="M 185 175v 10h 5a 5 5, 0, 0, 0, 0 -10" transform="rotate(90,190,180)"/><circle cx="190" cy="200" r="5" transform="rotate(0,190,200)"/><path d="M 185 285v 10h 5a 5 5, 0, 0, 0, 0 -10" transform="rotate(0,190,290)"/><path d="M 195 35v 10h 5a 5 5, 0, 0, 0, 0 -10" transform="rotate(-90,200,40)"/><rect x="195" y="45" width="10" height="10" transform="rotate(0,200,50)"/><path d="M 195 55v 10h 10v -5a 5 5, 0, 0, 0, -5 -5" transform="rotate(90,200,60)"/><path d="M 195 85v 10h 5a 5 5, 0, 0, 0, 0 -10" transform="rotate(180,200,90)"/><circle cx="200" cy="110" r="5" transform="rotate(0,200,110)"/><path d="M 195 125v 10h 10v -5a 5 5, 0, 0, 0, -5 -5" transform="rotate(-90,200,130)"/><rect x="195" y="135" width="10" height="10" transform="rotate(0,200,140)"/><rect x="195" y="145" width="10" height="10" transform="rotate(0,200,150)"/><rect x="195" y="155" width="10" height="10" transform="rotate(0,200,160)"/><path d="M 195 165v 10h 10v -5a 5 5, 0, 0, 0, -5 -5" transform="rotate(90,200,170)"/><path d="M 195 185v 10h 5a 5 5, 0, 0, 0, 0 -10" transform="rotate(180,200,190)"/><path d="M 195 215v 10h 10v -5a 5 5, 0, 0, 0, -5 -5" transform="rotate(-90,200,220)"/><rect x="195" y="225" width="10" height="10" transform="rotate(0,200,230)"/><rect x="195" y="235" width="10" height="10" transform="rotate(0,200,240)"/><rect x="195" y="245" width="10" height="10" transform="rotate(0,200,250)"/><path d="M 195 255v 10h 10v -5a 5 5, 0, 0, 0, -5 -5" transform="rotate(180,200,260)"/><circle cx="200" cy="280" r="5" transform="rotate(0,200,280)"/><path d="M 205 5v 10h 5a 5 5, 0, 0, 0, 0 -10" transform="rotate(-90,210,10)"/><path d="M 205 15v 10h 5a 5 5, 0, 0, 0, 0 -10" transform="rotate(90,210,20)"/><path d="M 205 45v 10h 5a 5 5, 0, 0, 0, 0 -10" transform="rotate(0,210,50)"/><path d="M 205 65v 10h 5a 5 5, 0, 0, 0, 0 -10" transform="rotate(-90,210,70)"/><rect x="205" y="75" width="10" height="10" transform="rotate(0,210,80)"/><rect x="205" y="85" width="10" height="10" transform="rotate(0,210,90)"/><path d="M 205 115v 10h 5a 5 5, 0, 0, 0, 0 -10" transform="rotate(-90,210,120)"/><rect x="205" y="125" width="10" height="10" transform="rotate(0,210,130)"/><rect x="205" y="135" width="10" height="10" transform="rotate(0,210,140)"/><rect x="205" y="145" width="10" height="10" transform="rotate(0,210,150)"/><path d="M 205 185v 10h 10v -5a 5 5, 0, 0, 0, -5 -5" transform="rotate(0,210,190)"/><rect x="205" y="195" width="10" height="10" transform="rotate(0,210,200)"/><rect x="205" y="205" width="10" height="10" transform="rotate(0,210,210)"/><rect x="205" y="215" width="10" height="10" transform="rotate(0,210,220)"/><rect x="205" y="225" width="10" height="10" transform="rotate(0,210,230)"/><rect x="205" y="235" width="10" height="10" transform="rotate(0,210,240)"/><rect x="205" y="245" width="10" height="10" transform="rotate(0,210,250)"/><rect x="205" y="255" width="10" height="10" transform="rotate(0,210,260)"/><path d="M 215 85v 10h 10v -5a 5 5, 0, 0, 0, -5 -5" transform="rotate(0,220,90)"/><rect x="215" y="95" width="10" height="10" transform="rotate(0,220,100)"/><path d="M 215 105v 10h 10v -5a 5 5, 0, 0, 0, -5 -5" transform="rotate(180,220,110)"/><rect x="215" y="125" width="10" height="10" transform="rotate(0,220,130)"/><path d="M 215 145v 10h 10v -5a 5 5, 0, 0, 0, -5 -5" transform="rotate(0,220,150)"/><rect x="215" y="155" width="10" height="10" transform="rotate(0,220,160)"/><rect x="215" y="165" width="10" height="10" transform="rotate(0,220,170)"/><path d="M 215 175v 10h 5a 5 5, 0, 0, 0, 0 -10" transform="rotate(90,220,180)"/><path d="M 215 195v 10h 10v -5a 5 5, 0, 0, 0, -5 -5" transform="rotate(0,220,200)"/><rect x="215" y="205" width="10" height="10" transform="rotate(0,220,210)"/><rect x="215" y="245" width="10" height="10" transform="rotate(0,220,250)"/><rect x="215" y="255" width="10" height="10" transform="rotate(0,220,260)"/><path d="M 215 285v 10h 5a 5 5, 0, 0, 0, 0 -10" transform="rotate(180,220,290)"/><rect x="225" y="95" width="10" height="10" transform="rotate(0,230,100)"/><path d="M 225 105v 10h 10v -5a 5 5, 0, 0, 0, -5 -5" transform="rotate(90,230,110)"/><rect x="225" y="125" width="10" height="10" transform="rotate(0,230,130)"/><path d="M 225 135v 10h 5a 5 5, 0, 0, 0, 0 -10" transform="rotate(90,230,140)"/><path d="M 225 155v 10h 5a 5 5, 0, 0, 0, 0 -10" transform="rotate(0,230,160)"/><rect x="225" y="205" width="10" height="10" transform="rotate(0,230,210)"/><circle cx="230" cy="230" r="5" transform="rotate(0,230,230)"/><rect x="225" y="245" width="10" height="10" transform="rotate(0,230,250)"/><rect x="225" y="255" width="10" height="10" transform="rotate(0,230,260)"/><rect x="225" y="265" width="10" height="10" transform="rotate(0,230,270)"/><rect x="225" y="275" width="10" height="10" transform="rotate(0,230,280)"/><rect x="225" y="285" width="10" height="10" transform="rotate(0,230,290)"/><path d="M 235 95v 10h 5a 5 5, 0, 0, 0, 0 -10" transform="rotate(0,240,100)"/><path d="M 235 115v 10h 5a 5 5, 0, 0, 0, 0 -10" transform="rotate(-90,240,120)"/><rect x="235" y="125" width="10" height="10" transform="rotate(0,240,130)"/><path d="M 235 145v 10h 5a 5 5, 0, 0, 0, 0 -10" transform="rotate(180,240,150)"/><path d="M 235 175v 10h 5a 5 5, 0, 0, 0, 0 -10" transform="rotate(180,240,180)"/><path d="M 235 195v 10h 10v -5a 5 5, 0, 0, 0, -5 -5" transform="rotate(-90,240,200)"/><rect x="235" y="205" width="10" height="10" transform="rotate(0,240,210)"/><rect x="235" y="245" width="10" height="10" transform="rotate(0,240,250)"/><path d="M 235 255v 10h 10v -5a 5 5, 0, 0, 0, -5 -5" transform="rotate(90,240,260)"/><rect x="235" y="285" width="10" height="10" transform="rotate(0,240,290)"/><rect x="245" y="125" width="10" height="10" transform="rotate(0,250,130)"/><path d="M 245 145v 10h 10v -5a 5 5, 0, 0, 0, -5 -5" transform="rotate(0,250,150)"/><path d="M 245 155v 10h 5a 5 5, 0, 0, 0, 0 -10" transform="rotate(90,250,160)"/><rect x="245" y="175" width="10" height="10" transform="rotate(0,250,180)"/><rect x="245" y="195" width="10" height="10" transform="rotate(0,250,200)"/><rect x="245" y="205" width="10" height="10" transform="rotate(0,250,210)"/><rect x="245" y="215" width="10" height="10" transform="rotate(0,250,220)"/><rect x="245" y="225" width="10" height="10" transform="rotate(0,250,230)"/><rect x="245" y="235" width="10" height="10" transform="rotate(0,250,240)"/><rect x="245" y="245" width="10" height="10" transform="rotate(0,250,250)"/><path d="M 245 275v 10h 10v -5a 5 5, 0, 0, 0, -5 -5" transform="rotate(-90,250,280)"/><path d="M 245 285v 10h 10v -5a 5 5, 0, 0, 0, -5 -5" transform="rotate(90,250,290)"/><path d="M 255 95v 10h 10v -5a 5 5, 0, 0, 0, -5 -5" transform="rotate(-90,260,100)"/><path d="M 255 105v 10h 5a 5 5, 0, 0, 0, 0 -10" transform="rotate(90,260,110)"/><path d="M 255 125v 10h 10v -5a 5 5, 0, 0, 0, -5 -5" transform="rotate(0,260,130)"/><path d="M 255 135v 10h 5a 5 5, 0, 0, 0, 0 -10" transform="rotate(90,260,140)"/><rect x="255" y="175" width="10" height="10" transform="rotate(0,260,180)"/><path d="M 255 195v 10h 10v -5a 5 5, 0, 0, 0, -5 -5" transform="rotate(0,260,200)"/><path d="M 255 205v 10h 10v -5a 5 5, 0, 0, 0, -5 -5" transform="rotate(90,260,210)"/><path d="M 255 235v 10h 10v -5a 5 5, 0, 0, 0, -5 -5" transform="rotate(0,260,240)"/><rect x="255" y="245" width="10" height="10" transform="rotate(0,260,250)"/><rect x="255" y="255" width="10" height="10" transform="rotate(0,260,260)"/><rect x="255" y="265" width="10" height="10" transform="rotate(0,260,270)"/><rect x="255" y="275" width="10" height="10" transform="rotate(0,260,280)"/><path d="M 265 85v 10h 10v -5a 5 5, 0, 0, 0, -5 -5" transform="rotate(-90,270,90)"/><rect x="265" y="95" width="10" height="10" transform="rotate(0,270,100)"/><path d="M 265 145v 10h 10v -5a 5 5, 0, 0, 0, -5 -5" transform="rotate(-90,270,150)"/><path d="M 265 155v 10h 5a 5 5, 0, 0, 0, 0 -10" transform="rotate(90,270,160)"/><path d="M 265 175v 10h 5a 5 5, 0, 0, 0, 0 -10" transform="rotate(0,270,180)"/><circle cx="270" cy="220" r="5" transform="rotate(0,270,220)"/><path d="M 265 245v 10h 5a 5 5, 0, 0, 0, 0 -10" transform="rotate(0,270,250)"/><path d="M 265 265v 10h 10v -5a 5 5, 0, 0, 0, -5 -5" transform="rotate(0,270,270)"/><rect x="265" y="275" width="10" height="10" transform="rotate(0,270,280)"/><path d="M 265 285v 10h 5a 5 5, 0, 0, 0, 0 -10" transform="rotate(90,270,290)"/><path d="M 275 85v 10h 10v -5a 5 5, 0, 0, 0, -5 -5" transform="rotate(0,280,90)"/><rect x="275" y="95" width="10" height="10" transform="rotate(0,280,100)"/><path d="M 275 105v 10h 5a 5 5, 0, 0, 0, 0 -10" transform="rotate(90,280,110)"/><circle cx="280" cy="130" r="5" transform="rotate(0,280,130)"/><rect x="275" y="145" width="10" height="10" transform="rotate(0,280,150)"/><circle cx="280" cy="190" r="5" transform="rotate(0,280,190)"/><circle cx="280" cy="230" r="5" transform="rotate(0,280,230)"/><path d="M 285 95v 10h 5a 5 5, 0, 0, 0, 0 -10" transform="rotate(0,290,100)"/><path d="M 285 135v 10h 5a 5 5, 0, 0, 0, 0 -10" transform="rotate(-90,290,140)"/><rect x="285" y="145" width="10" height="10" transform="rotate(0,290,150)"/><path d="M 285 155v 10h 5a 5 5, 0, 0, 0, 0 -10" transform="rotate(90,290,160)"/><circle cx="290" cy="210" r="5" transform="rotate(0,290,210)"/><path d="M 285 235v 10h 5a 5 5, 0, 0, 0, 0 -10" transform="rotate(-90,290,240)"/><rect x="285" y="245" width="10" height="10" transform="rotate(0,290,250)"/><path d="M 285 255v 10h 5a 5 5, 0, 0, 0, 0 -10" transform="rotate(90,290,260)"/><circle cx="290" cy="290" r="5" transform="rotate(0,290,290)"/></g><g class="corners-square-color-0-0"><path clip-rule="evenodd" d="M 5 30v 20a 25 25, 0, 0, 0, 25 25h 20a 25 25, 0, 0, 0, 25 -25v -20a 25 25, 0, 0, 0, -25 -25h -20a 25 25, 0, 0, 0, -25 25M 30 15h 20a 15 15, 0, 0, 1, 15 15v 20a 15 15, 0, 0, 1, -15 15h -20a 15 15, 0, 0, 1, -15 -15v -20a 15 15, 0, 0, 1, 15 -15" transform="rotate(0,40,40)"/></g><g class="corners-dot-color-0-0"><circle cx="40" cy="40" r="15" transform="rotate(0,40,40)"/></g><g class="corners-square-color-1-0"><path clip-rule="evenodd" d="M 225 30v 20a 25 25, 0, 0, 0, 25 25h 20a 25 25, 0, 0, 0, 25 -25v -20a 25 25, 0, 0, 0, -25 -25h -20a 25 25, 0, 0, 0, -25 25M 250 15h 20a 15 15, 0, 0, 1, 15 15v 20a 15 15, 0, 0, 1, -15 15h -20a 15 15, 0, 0, 1, -15 -15v -20a 15 15, 0, 0, 1, 15 -15" transform="rotate(90,260,40)"/></g><g class="corners-dot-color-1-0"><circle cx="260" cy="40" r="15" transform="rotate(90,260,40)"/></g><g class="corners-square-color-0-1"><path clip-rule="evenodd" d="M 5 250v 20a 25 25, 0, 0, 0, 25 25h 20a 25 25, 0, 0, 0, 25 -25v -20a 25 25, 0, 0, 0, -25 -25h -20a 25 25, 0, 0, 0, -25 25M 30 235h 20a 15 15, 0, 0, 1, 15 15v 20a 15 15, 0, 0, 1, -15 15h -20a 15 15, 0, 0, 1, -15 -15v -20a 15 15, 0, 0, 1, 15 -15" transform="rotate(-90,40,260)"/></g><g class="corners-dot-color-0-1"><circle cx="40" cy="260" r="15" transform="rotate(-90,40,260)"/></g></svg></g></g></svg></svg>