<svg width="961" height="179" viewBox="0 0 961 179" fill="none" xmlns="http://www.w3.org/2000/svg">
<path d="M47.501 11.7129H61.4338V25.703H47.501V60.6784C47.501 64.3885 46.0331 67.9475 43.4201 70.5705C40.8072 73.1945 37.2634 74.6685 33.5682 74.6685C37.2634 74.6685 40.8072 76.1425 43.4201 78.7665C46.0331 81.3895 47.501 84.9485 47.501 88.6585V123.634H61.4338V137.624H47.501C40.0469 135.735 33.5682 131.328 33.5682 123.634V95.6535C33.5682 91.9435 32.1002 88.3845 29.4873 85.7615C26.8744 83.1375 23.3306 81.6635 19.6354 81.6635H12.6689V67.6735H19.6354C23.3306 67.6735 26.8744 66.1995 29.4873 63.5755C32.1002 60.9522 33.5682 57.3938 33.5682 53.6833V25.703C33.5682 21.9926 35.0361 18.4342 37.649 15.8105C40.2619 13.1869 43.8058 11.7129 47.501 11.7129ZM178.057 11.7129C181.752 11.7129 185.296 13.1869 187.909 15.8105C190.521 18.4342 191.989 21.9926 191.989 25.703V53.6833C191.989 57.3938 193.457 60.9522 196.07 63.5755C198.683 66.1995 202.227 67.6735 205.922 67.6735H212.889V81.6635H205.922C202.227 81.6635 198.683 83.1375 196.07 85.7615C193.457 88.3845 191.989 91.9435 191.989 95.6535V123.634C191.989 127.344 190.521 130.902 187.909 133.526C185.296 136.15 181.752 137.624 178.057 137.624H164.124V123.634H178.057V88.6585C178.057 84.9485 179.524 81.3895 182.137 78.7665C184.75 76.1425 188.294 74.6685 191.989 74.6685C188.294 74.6685 184.75 73.1945 182.137 70.5705C179.524 67.9475 178.057 64.3885 178.057 60.6784V25.703H164.124V11.7129H178.057Z" fill="#898989"/>
<path d="M118.043 86.806V117.058H99.8931V32.3535H118.043V62.121C122.279 57.6437 127.603 55.9497 133.653 55.9497C150.836 55.9497 161.606 70.712 161.606 86.806V117.058H143.455V86.806C143.455 78.578 140.188 72.769 131.354 72.769C122.642 72.769 118.043 78.336 118.043 86.806Z" fill="#64D620"/>
<path d="M68.1323 32.3535H86.283V117.058H68.1323V32.3535Z" fill="#01BAEF"/>
<path d="M736.632 105.78C747.431 105.78 753.644 99.419 753.644 88.621C753.644 77.822 747.431 71.461 736.632 71.461C725.833 71.461 719.62 77.822 719.62 88.621C719.62 99.419 725.833 105.78 736.632 105.78ZM736.632 126.342C713.851 126.342 697.431 111.254 697.431 88.621C697.431 65.248 714.442 50.8988 736.632 50.8988C759.561 50.8988 775.833 65.988 775.833 88.621C775.833 111.845 758.673 126.342 736.632 126.342ZM824.194 105.78C834.993 105.78 841.206 99.419 841.206 88.621C841.206 77.822 834.993 71.461 824.194 71.461C813.396 71.461 807.183 77.822 807.183 88.621C807.183 99.419 813.396 105.78 824.194 105.78ZM824.194 126.342C801.413 126.342 784.993 111.254 784.993 88.621C784.993 65.248 802.005 50.8988 824.194 50.8988C847.123 50.8988 863.396 65.988 863.396 88.621C863.396 111.845 846.236 126.342 824.194 126.342ZM919.745 51.6384H941.935V59.0349C941.935 70.277 938.088 81.076 929.804 88.769L949.331 125.603H921.964L899.035 81.816V125.603H876.846V22.0527H899.035V77.822H902.438C914.42 77.822 919.745 69.834 919.745 58.887V51.6384Z" fill="#64D620"/>
<path d="M359.482 105.782C370.281 105.782 376.494 99.4207 376.494 88.6217C376.494 77.8237 370.281 71.4627 359.482 71.4627C348.683 71.4627 342.47 77.8237 342.47 88.6217C342.47 99.4207 348.683 105.782 359.482 105.782ZM359.482 126.344C336.701 126.344 320.281 111.256 320.281 88.6217C320.281 65.2497 337.293 50.9003 359.482 50.9003C382.411 50.9003 398.683 65.9887 398.683 88.6217C398.683 111.847 381.523 126.344 359.482 126.344ZM458.583 81.2257C458.583 73.3857 451.039 71.4627 444.53 71.4627C438.021 71.4627 430.477 73.3857 430.477 81.2257C430.477 89.0657 438.021 90.9887 444.53 90.9887C451.039 90.9887 458.583 89.0657 458.583 81.2257ZM452.666 139.658C452.666 134.628 449.116 132.705 444.53 132.705C439.944 132.705 436.394 134.628 436.394 139.658C436.394 144.687 439.944 146.611 444.53 146.611C449.116 146.611 452.666 144.687 452.666 139.658ZM472.636 139.658C472.636 155.338 457.991 161.847 444.53 161.847C430.92 161.847 416.423 154.747 416.423 139.658C416.423 128.563 424.559 121.019 434.914 118.652V110.664C430.624 109.924 426.926 108.593 423.672 106.67C414.056 101.64 408.287 92.0247 408.287 81.2257C408.287 60.8116 426.482 50.9003 444.53 50.9003C452.518 50.9003 459.323 52.3796 464.944 55.4861C470.713 52.6755 476.334 51.64 482.695 51.64H488.465V69.5397H485.21H481.956C480.92 69.6877 479.737 69.8357 478.553 70.1307C480.033 73.5337 480.772 77.2317 480.772 81.2257C480.772 97.0537 469.382 107.409 454.885 110.516V118.8C464.796 121.611 472.636 128.859 472.636 139.658ZM498.661 51.64H520.85V125.605H498.661V51.64ZM509.755 44.6873C502.211 44.6873 496.885 39.3619 496.885 31.8175C496.885 24.1252 502.211 19.0957 509.755 19.0957C517.448 19.0957 522.477 24.1252 522.477 31.8175C522.477 39.6578 517.595 44.6873 509.755 44.6873ZM597.466 101.196V123.386C589.921 125.9 582.081 126.64 574.241 126.64C551.312 126.64 535.04 111.403 535.04 88.7697C535.04 65.2497 551.904 50.9003 574.241 50.9003C582.081 50.9003 589.921 51.64 597.466 54.1548V76.3437C590.957 72.9417 582.821 72.0537 575.572 72.0537C570.691 72.0537 564.774 73.0897 561.371 76.9357C558.265 80.0427 557.229 84.4797 557.229 88.6217C557.229 90.9887 557.525 93.2077 558.265 95.1307C558.856 97.2017 559.892 98.9767 561.371 100.457C564.626 104.451 570.691 105.486 575.572 105.486C582.081 105.486 591.697 104.303 597.466 101.196Z" fill="#01BAEF"/>
<path d="M486.777 170.333L497.516 146.469H501.88L512.653 170.333H508.016L498.777 148.821H500.55L491.345 170.333H486.777ZM491.72 164.81L492.913 161.333H505.8L506.993 164.81H491.72Z" fill="#555555"/>
<path d="M538.782 170.674C535.509 170.674 532.94 169.753 531.077 167.912C529.236 166.072 528.316 163.412 528.316 159.935V146.469H532.748V159.765C532.748 162.219 533.269 164.004 534.316 165.117C535.383 166.232 536.883 166.787 538.816 166.787C540.747 166.787 542.236 166.232 543.282 165.117C544.327 164.004 544.85 162.219 544.85 159.765V146.469H549.214V159.935C549.214 163.412 548.282 166.072 546.418 167.912C544.578 169.753 542.031 170.674 538.782 170.674Z" fill="#555555"/>
<path d="M557.124 170.333V146.469H560.772L575.738 164.844H573.931V146.469H578.329V170.333H574.681L559.715 151.958H561.522V170.333H557.124Z" fill="#555555"/>
<path d="M586.428 170.333V146.469H590.86V170.333H586.428Z" fill="#555555"/>
<path d="M603.861 170.333V150.219H595.952V146.469H616.203V150.219H608.293V170.333H603.861Z" fill="#555555"/>
<path d="M643.542 170.675C641.678 170.675 639.962 170.368 638.394 169.755C636.825 169.141 635.462 168.289 634.303 167.198C633.143 166.084 632.245 164.789 631.609 163.311C630.973 161.811 630.655 160.175 630.655 158.402C630.655 156.629 630.973 155.005 631.609 153.527C632.245 152.027 633.143 150.731 634.303 149.64C635.462 148.527 636.825 147.663 638.394 147.049C639.962 146.436 641.666 146.129 643.507 146.129C645.371 146.129 647.075 146.436 648.621 147.049C650.189 147.663 651.553 148.527 652.712 149.64C653.871 150.731 654.769 152.027 655.405 153.527C656.041 155.005 656.36 156.629 656.36 158.402C656.36 160.175 656.041 161.811 655.405 163.311C654.769 164.811 653.871 166.107 652.712 167.198C651.553 168.289 650.189 169.141 648.621 169.755C647.075 170.368 645.382 170.675 643.542 170.675ZM643.507 166.789C644.712 166.789 645.826 166.584 646.848 166.175C647.871 165.766 648.758 165.186 649.508 164.436C650.258 163.664 650.837 162.778 651.246 161.777C651.678 160.754 651.894 159.629 651.894 158.402C651.894 157.175 651.678 156.061 651.246 155.061C650.837 154.038 650.258 153.152 649.508 152.402C648.758 151.63 647.871 151.038 646.848 150.629C645.826 150.22 644.712 150.015 643.507 150.015C642.302 150.015 641.189 150.22 640.166 150.629C639.166 151.038 638.28 151.63 637.507 152.402C636.757 153.152 636.166 154.038 635.734 155.061C635.325 156.061 635.121 157.175 635.121 158.402C635.121 159.607 635.325 160.72 635.734 161.743C636.166 162.766 636.757 163.664 637.507 164.436C638.257 165.186 639.144 165.766 640.166 166.175C641.189 166.584 642.302 166.789 643.507 166.789Z" fill="#555555"/>
<path d="M666.82 157.446H678.718V161.196H666.82V157.446ZM667.195 170.333H662.763V146.469H680.184V150.185H667.195V170.333Z" fill="#555555"/>
<path d="M701.392 156.389H713.256V160.037H701.392V156.389ZM701.733 166.617H715.199V170.333H697.301V146.469H714.722V150.185H701.733V166.617Z" fill="#555555"/>
<path d="M721.844 170.333V146.469H731.662C733.776 146.469 735.583 146.81 737.083 147.492C738.605 148.173 739.776 149.152 740.594 150.423C741.413 151.697 741.822 153.208 741.822 154.958C741.822 156.708 741.413 158.22 740.594 159.492C739.776 160.765 738.605 161.742 737.083 162.424C735.583 163.106 733.776 163.446 731.662 163.446H724.299L726.276 161.367V170.333H721.844ZM726.276 161.844L724.299 159.696H731.458C733.413 159.696 734.879 159.287 735.856 158.469C736.856 157.629 737.356 156.458 737.356 154.958C737.356 153.435 736.856 152.264 735.856 151.446C734.879 150.628 733.413 150.219 731.458 150.219H724.299L726.276 148.037V161.844Z" fill="#555555"/>
<path d="M747.952 170.333V146.469H752.384V170.333H747.952Z" fill="#555555"/>
<path d="M757.646 170.333L767.703 156.492V159.833L758.123 146.469H763.134L770.259 156.355L768.214 156.389L775.271 146.469H780.078L770.566 159.594V156.389L780.692 170.333H775.578L768.078 159.833H770.089L762.691 170.333H757.646Z" fill="#555555"/>
<path d="M789.178 156.389H801.042V160.037H789.178V156.389ZM789.519 166.617H802.985V170.333H785.087V146.469H802.508V150.185H789.519V166.617Z" fill="#555555"/>
<path d="M809.631 170.333V146.469H814.063V166.583H826.54V170.333H809.631Z" fill="#555555"/>
<path d="M838.974 170.675C837.111 170.675 835.326 170.414 833.622 169.891C831.917 169.345 830.565 168.653 829.565 167.811L831.099 164.368C832.054 165.118 833.236 165.744 834.645 166.243C836.054 166.744 837.498 166.993 838.974 166.993C840.225 166.993 841.236 166.857 842.008 166.584C842.782 166.311 843.35 165.948 843.713 165.493C844.078 165.016 844.259 164.482 844.259 163.891C844.259 163.164 843.998 162.585 843.474 162.152C842.953 161.698 842.271 161.346 841.429 161.095C840.611 160.822 839.69 160.573 838.667 160.345C837.668 160.118 836.656 159.857 835.633 159.561C834.634 159.244 833.714 158.845 832.872 158.368C832.054 157.868 831.384 157.209 830.86 156.391C830.339 155.572 830.076 154.527 830.076 153.254C830.076 151.959 830.417 150.777 831.099 149.709C831.804 148.618 832.861 147.755 834.27 147.118C835.701 146.459 837.508 146.129 839.69 146.129C841.122 146.129 842.543 146.311 843.952 146.674C845.361 147.039 846.589 147.561 847.634 148.243L846.236 151.686C845.168 151.05 844.066 150.584 842.929 150.288C841.793 149.971 840.702 149.811 839.656 149.811C838.429 149.811 837.43 149.959 836.656 150.254C835.906 150.55 835.35 150.936 834.986 151.413C834.645 151.89 834.474 152.436 834.474 153.05C834.474 153.777 834.725 154.369 835.224 154.822C835.747 155.255 836.417 155.596 837.236 155.845C838.077 156.096 839.008 156.346 840.031 156.595C841.054 156.823 842.066 157.084 843.065 157.379C844.088 157.676 845.009 158.061 845.827 158.538C846.669 159.016 847.339 159.663 847.838 160.482C848.361 161.3 848.622 162.334 848.622 163.584C848.622 164.857 848.271 166.039 847.565 167.129C846.884 168.198 845.827 169.062 844.395 169.72C842.963 170.358 841.156 170.675 838.974 170.675Z" fill="#555555"/>
<path d="M865.904 170.675C864.041 170.675 862.325 170.368 860.756 169.755C859.188 169.141 857.825 168.289 856.665 167.198C855.506 166.084 854.608 164.789 853.972 163.311C853.336 161.811 853.018 160.175 853.018 158.402C853.018 156.629 853.336 155.005 853.972 153.527C854.608 152.027 855.506 150.731 856.665 149.64C857.825 148.527 859.188 147.663 860.756 147.049C862.325 146.436 864.029 146.129 865.87 146.129C867.733 146.129 869.438 146.436 870.984 147.049C872.552 147.663 873.916 148.527 875.075 149.64C876.234 150.731 877.132 152.027 877.768 153.527C878.404 155.005 878.723 156.629 878.723 158.402C878.723 160.175 878.404 161.811 877.768 163.311C877.132 164.811 876.234 166.107 875.075 167.198C873.916 168.289 872.552 169.141 870.984 169.755C869.438 170.368 867.745 170.675 865.904 170.675ZM865.87 166.789C867.075 166.789 868.188 166.584 869.211 166.175C870.234 165.766 871.12 165.186 871.87 164.436C872.62 163.664 873.2 162.778 873.609 161.777C874.04 160.754 874.257 159.629 874.257 158.402C874.257 157.175 874.04 156.061 873.609 155.061C873.2 154.038 872.62 153.152 871.87 152.402C871.12 151.63 870.234 151.038 869.211 150.629C868.188 150.22 867.075 150.015 865.87 150.015C864.665 150.015 863.552 150.22 862.529 150.629C861.529 151.038 860.642 151.63 859.87 152.402C859.12 153.152 858.529 154.038 858.097 155.061C857.688 156.061 857.484 157.175 857.484 158.402C857.484 159.607 857.688 160.72 858.097 161.743C858.529 162.766 859.12 163.664 859.87 164.436C860.62 165.186 861.506 165.766 862.529 166.175C863.552 166.584 864.665 166.789 865.87 166.789Z" fill="#555555"/>
<path d="M889.182 157.446H901.081V161.196H889.182V157.446ZM889.557 170.333H885.125V146.469H902.546V150.185H889.557V170.333Z" fill="#555555"/>
<path d="M913.544 170.333V150.219H905.634V146.469H925.885V150.219H917.976V170.333H913.544Z" fill="#555555"/>
<path d="M939.477 140.49C944.919 140.49 949.331 144.901 949.331 150.344C949.331 155.786 944.919 160.198 939.477 160.198C934.034 160.198 929.624 155.786 929.624 150.344C929.624 144.901 934.034 140.49 939.477 140.49ZM939.477 142.461C937.386 142.461 935.381 143.291 933.903 144.77C932.424 146.248 931.594 148.253 931.594 150.344C931.594 152.434 932.424 154.44 933.903 155.918C935.381 157.396 937.386 158.227 939.477 158.227C941.567 158.227 943.574 157.396 945.051 155.918C946.529 154.44 947.36 152.434 947.36 150.344C947.36 148.253 946.529 146.248 945.051 144.77C943.574 143.291 941.567 142.461 939.477 142.461ZM939.97 145.417C940.723 145.417 941.455 145.663 942.054 146.118C942.653 146.572 943.088 147.21 943.292 147.934C943.495 148.659 943.456 149.43 943.179 150.13C942.904 150.831 942.407 151.421 941.763 151.813L944.274 155.27H941.838L939.69 152.315H937.507V155.27H935.536V145.417H939.97ZM939.97 147.387H937.507V150.344H939.97C940.338 150.344 940.692 150.208 940.963 149.96C941.236 149.713 941.406 149.374 941.442 149.009L941.448 148.866C941.448 148.474 941.292 148.098 941.015 147.821C940.737 147.543 940.362 147.387 939.97 147.387Z" fill="#555555"/>
<path d="M275.954 107.583H314.572V126.145H253.05V21.5566H275.954V107.583Z" fill="#01BAEF"/>
<path d="M687.397 21.5566V126.145H664.833V84.6547H637.364V126.145H614.8V21.5566H637.364V61.6377H664.833V21.5566H687.397Z" fill="#64D620"/>
</svg>
